<?xml version="1.0" encoding="utf-8"?>
<!-- Generator: Adobe Illustrator 22.1.0, SVG Export Plug-In . SVG Version: 6.00 Build 0)  -->
<svg version="1.1" id="Layer_1" xmlns="http://www.w3.org/2000/svg" xmlns:xlink="http://www.w3.org/1999/xlink" x="0px" y="0px"
	 viewBox="0 0 280 1140" style="enable-background:new 0 0 280 1140;" xml:space="preserve">
<g>
	<g>
		<rect x="33.641" y="174.498" style="fill:#FFFFFF;stroke:#E0E0E0;" width="44.895" height="22.064"/>
		<rect x="33.641" y="196.562" style="fill:#FFFFFF;stroke:#E0E0E0;" width="44.895" height="22.064"/>
		<rect x="33.641" y="152.434" style="fill:#FFFFFF;stroke:#E0E0E0;" width="44.895" height="22.064"/>
		<rect x="33.641" y="218.626" style="fill:#FFFFFF;stroke:#E0E0E0;" width="44.895" height="22.064"/>
		<rect x="33.641" y="240.689" style="fill:#FFFFFF;stroke:#E0E0E0;" width="44.895" height="22.064"/>
		<rect x="33.641" y="262.753" style="fill:#FFFFFF;stroke:#E0E0E0;" width="44.895" height="22.064"/>
		<rect x="33.641" y="284.817" style="fill:#FFFFFF;stroke:#E0E0E0;" width="44.895" height="22.064"/>
		<rect x="33.641" y="306.881" style="fill:#FFFFFF;stroke:#E0E0E0;" width="44.895" height="22.064"/>
		<rect x="33.641" y="328.945" style="fill:#FFFFFF;stroke:#E0E0E0;" width="44.895" height="22.064"/>
		<rect x="33.641" y="351.009" style="fill:#FFFFFF;stroke:#E0E0E0;" width="44.895" height="22.064"/>
		<rect x="33.641" y="373.073" style="fill:#FFFFFF;stroke:#E0E0E0;" width="44.895" height="22.064"/>
		<rect x="33.641" y="395.137" style="fill:#FFFFFF;stroke:#E0E0E0;" width="44.895" height="22.064"/>
		<rect x="33.641" y="417.201" style="fill:#FFFFFF;stroke:#E0E0E0;" width="44.895" height="22.064"/>
		<rect x="33.641" y="439.265" style="fill:#FFFFFF;stroke:#E0E0E0;" width="44.895" height="22.064"/>
		<rect x="33.641" y="461.329" style="fill:#FFFFFF;stroke:#E0E0E0;" width="44.895" height="22.064"/>
		<rect x="33.641" y="483.393" style="fill:#FFFFFF;stroke:#E0E0E0;" width="44.895" height="22.064"/>
		<rect x="33.641" y="505.457" style="fill:#FFFFFF;stroke:#E0E0E0;" width="44.895" height="22.064"/>
		<rect x="33.641" y="527.521" style="fill:#FFFFFF;stroke:#E0E0E0;" width="44.895" height="22.064"/>
		<rect x="33.641" y="549.584" style="fill:#FFFFFF;stroke:#E0E0E0;" width="44.895" height="22.064"/>
		<rect x="33.641" y="571.648" style="fill:#FFFFFF;stroke:#E0E0E0;" width="44.895" height="22.064"/>
		<rect x="33.641" y="593.712" style="fill:#FFFFFF;stroke:#E0E0E0;" width="44.895" height="22.064"/>
		<rect x="33.641" y="615.776" style="fill:#FFFFFF;stroke:#E0E0E0;" width="44.895" height="22.064"/>
		<rect x="33.641" y="637.84" style="fill:#FFFFFF;stroke:#E0E0E0;" width="44.895" height="22.064"/>
		<rect x="33.641" y="659.904" style="fill:#FFFFFF;stroke:#E0E0E0;" width="44.895" height="22.064"/>
		<rect x="33.641" y="681.968" style="fill:#FFFFFF;stroke:#E0E0E0;" width="44.895" height="22.064"/>
		<rect x="33.641" y="704.032" style="fill:#FFFFFF;stroke:#E0E0E0;" width="44.895" height="22.064"/>
		<rect x="33.641" y="726.096" style="fill:#FFFFFF;stroke:#E0E0E0;" width="44.895" height="22.064"/>
		<rect x="33.641" y="748.16" style="fill:#FFFFFF;stroke:#E0E0E0;" width="44.895" height="22.064"/>
		<rect x="33.641" y="770.224" style="fill:#FFFFFF;stroke:#E0E0E0;" width="44.895" height="22.064"/>
		<rect x="33.641" y="792.288" style="fill:#FFFFFF;stroke:#E0E0E0;" width="44.895" height="22.064"/>
		<rect x="33.641" y="814.352" style="fill:#FFFFFF;stroke:#E0E0E0;" width="44.895" height="22.064"/>
		<rect x="33.641" y="836.415" style="fill:#FFFFFF;stroke:#E0E0E0;" width="44.895" height="22.064"/>
		<rect x="33.641" y="858.479" style="fill:#FFFFFF;stroke:#E0E0E0;" width="44.895" height="22.064"/>
		<rect x="33.641" y="880.543" style="fill:#FFFFFF;stroke:#E0E0E0;" width="44.895" height="22.064"/>
		<rect x="33.641" y="902.607" style="fill:#FFFFFF;stroke:#E0E0E0;" width="44.895" height="22.064"/>
		<rect x="33.641" y="924.671" style="fill:#FFFFFF;stroke:#E0E0E0;" width="44.895" height="22.064"/>
		<rect x="33.641" y="946.735" style="fill:#FFFFFF;stroke:#E0E0E0;" width="44.895" height="22.064"/>
		<rect x="33.641" y="968.799" style="fill:#FFFFFF;stroke:#E0E0E0;" width="44.895" height="22.064"/>
		<rect x="33.641" y="990.863" style="fill:#FFFFFF;stroke:#E0E0E0;" width="44.895" height="22.064"/>
		<rect x="33.641" y="1012.927" style="fill:#FFFFFF;stroke:#E0E0E0;" width="44.895" height="22.064"/>
		<rect x="33.641" y="1034.991" style="fill:#FFFFFF;stroke:#E0E0E0;" width="44.895" height="22.064"/>
		<rect x="33.641" y="1057.055" style="fill:#FFFFFF;stroke:#E0E0E0;" width="44.895" height="22.064"/>
		<rect x="33.641" y="1079.119" style="fill:#FFFFFF;stroke:#E0E0E0;" width="44.895" height="22.064"/>
		<rect x="33.641" y="1101.188" style="fill:#FFFFFF;stroke:#E0E0E0;" width="44.895" height="22.064"/>
	</g>
	<line style="fill:none;stroke:#C11B17;stroke-width:6;" x1="68.536" y1="188.255" x2="68.536" y2="206.674"/>
	<line style="fill:none;stroke:#C11B17;stroke-width:6;" x1="68.536" y1="210.335" x2="68.536" y2="228.754"/>
	<line style="fill:none;stroke:#C11B17;stroke-width:6;" x1="68.536" y1="430.991" x2="68.536" y2="492.324"/>
	<line style="fill:none;stroke:#7E587E;stroke-width:6;" x1="56.089" y1="483.393" x2="56.089" y2="636.674"/>
	<line style="fill:none;stroke:#024E87;stroke-width:6;" x1="43.641" y1="232.399" x2="43.641" y2="271.7"/>
	<line style="fill:none;stroke:#024E87;stroke-width:6;" x1="43.641" y1="425.475" x2="43.641" y2="273.437"/>
	<line style="fill:none;stroke:#C11B17;stroke-width:6;" x1="68.536" y1="758.272" x2="68.536" y2="494.061"/>
	<line style="fill:none;stroke:#C11B17;stroke-width:6;" x1="68.536" y1="846.528" x2="68.536" y2="784.014"/>
	<line style="fill:none;stroke:#C11B17;stroke-width:6;" x1="68.536" y1="956.848" x2="68.536" y2="872.269"/>
	<line style="fill:none;stroke:#C11B17;stroke-width:6;" x1="68.536" y1="1015.685" x2="68.536" y2="960.525"/>
	<line style="fill:none;stroke:#C11B17;stroke-width:6;" x1="68.536" y1="1047.615" x2="68.536" y2="1030.394"/>
	<line style="fill:none;stroke:#7E587E;stroke-width:6;" x1="56.089" y1="758.272" x2="56.089" y2="638.411"/>
	<line style="fill:none;stroke:#C11B17;stroke-width:6;" x1="68.536" y1="1049.352" x2="68.536" y2="1103.941"/>
	<polyline style="fill:none;stroke:#000000;stroke-miterlimit:10;" points="91.999,159.459 83.275,159.459 83.275,193.721 
		71.461,193.721 	"/>
	<polyline style="fill:none;stroke:#000000;stroke-miterlimit:10;" points="91.999,230.799 83.275,230.799 83.275,222.847 
		71.461,222.847 	"/>
	<polyline style="fill:none;stroke:#000000;stroke-miterlimit:10;" points="91.999,1102.549 83.275,1102.549 83.275,1086.597 
		71.461,1086.597 	"/>
	<polyline style="fill:none;stroke:#000000;stroke-miterlimit:10;" points="91.999,286.463 73.484,286.463 73.484,255.79 
		46.696,255.79 	"/>
	<polyline style="fill:none;stroke:#000000;stroke-miterlimit:10;" points="91.999,355.314 73.484,355.314 73.484,355.314 
		46.696,355.314 	"/>
	<line style="fill:none;stroke:#000000;stroke-miterlimit:10;" x1="91.999" y1="455.649" x2="71.461" y2="455.649"/>
	<line style="fill:none;stroke:#000000;stroke-miterlimit:10;" x1="91.999" y1="538.418" x2="71.461" y2="538.418"/>
	<line style="fill:none;stroke:#000000;stroke-miterlimit:10;" x1="91.999" y1="806.004" x2="71.461" y2="806.004"/>
	<line style="fill:none;stroke:#000000;stroke-miterlimit:10;" x1="91.999" y1="904.287" x2="71.461" y2="904.287"/>
	<line style="fill:none;stroke:#000000;stroke-miterlimit:10;" x1="91.999" y1="965.212" x2="71.461" y2="965.212"/>
	<line style="fill:none;stroke:#000000;stroke-miterlimit:10;" x1="91.999" y1="1041.618" x2="71.461" y2="1041.618"/>
	<line style="fill:none;stroke:#000000;stroke-miterlimit:10;" x1="91.999" y1="628.899" x2="59.211" y2="628.899"/>
	<line style="fill:none;stroke:#C11B17;stroke-width:6;" x1="8.007" y1="25.318" x2="8.007" y2="43.737"/>
	<line style="fill:none;stroke:#7E587E;stroke-width:6;" x1="8.007" y1="51.318" x2="8.007" y2="69.737"/>
	<line style="fill:none;stroke:#024E87;stroke-width:6;" x1="8.007" y1="77.318" x2="8.007" y2="95.737"/>
	<g>
		<circle style="fill:#FFFFFF;stroke:#231F20;stroke-miterlimit:10;" cx="68.536" cy="754.272" r="5.772"/>
		<circle style="fill:none;stroke:#231F20;stroke-width:1.5;stroke-miterlimit:10;" cx="68.536" cy="754.272" r="5.772"/>
	</g>
	<g>
		<circle style="fill:#FFFFFF;stroke:#231F20;stroke-miterlimit:10;" cx="68.536" cy="842.535" r="5.772"/>
		<circle style="fill:none;stroke:#231F20;stroke-width:1.5;stroke-miterlimit:10;" cx="68.536" cy="842.535" r="5.772"/>
	</g>
	<g>
		<circle style="fill:#FFFFFF;stroke:#231F20;stroke-miterlimit:10;" cx="68.536" cy="952.848" r="5.772"/>
		<circle style="fill:none;stroke:#231F20;stroke-width:1.5;stroke-miterlimit:10;" cx="68.536" cy="952.848" r="5.772"/>
	</g>
	<g>
		<circle style="fill:#FFFFFF;stroke:#231F20;stroke-miterlimit:10;" cx="68.536" cy="1011.685" r="5.772"/>
		<circle style="fill:none;stroke:#231F20;stroke-width:1.5;stroke-miterlimit:10;" cx="68.536" cy="1011.685" r="5.772"/>
	</g>
	
		<line style="fill:none;stroke:#231F20;stroke-width:1.5;stroke-miterlimit:10;" x1="64.341" y1="750.077" x2="72.719" y2="758.455"/>
	
		<line style="fill:none;stroke:#231F20;stroke-width:1.5;stroke-miterlimit:10;" x1="64.341" y1="838.533" x2="72.719" y2="846.912"/>
	
		<line style="fill:none;stroke:#231F20;stroke-width:1.5;stroke-miterlimit:10;" x1="64.341" y1="948.548" x2="72.719" y2="956.927"/>
	
		<line style="fill:none;stroke:#231F20;stroke-width:1.5;stroke-miterlimit:10;" x1="64.341" y1="1007.362" x2="72.719" y2="1015.741"/>
	<g>
		<g>
			<circle style="fill:#FFFFFF;stroke:#231F20;stroke-miterlimit:10;" cx="68.536" cy="1099.941" r="5.772"/>
			<circle style="fill:none;stroke:#231F20;stroke-width:1.5;stroke-miterlimit:10;" cx="68.536" cy="1099.941" r="5.772"/>
		</g>
		
			<line style="fill:none;stroke:#231F20;stroke-width:1.5;stroke-miterlimit:10;" x1="64.341" y1="1095.751" x2="72.719" y2="1104.13"/>
	</g>
	<g>
		<circle style="fill:#FFFFFF;stroke:#231F20;stroke-miterlimit:10;" cx="8.007" cy="112.251" r="5.772"/>
		<circle style="fill:none;stroke:#231F20;stroke-width:1.5;stroke-miterlimit:10;" cx="8.007" cy="112.251" r="5.772"/>
	</g>
	<line style="fill:none;stroke:#231F20;stroke-width:1.5;stroke-miterlimit:10;" x1="3.811" y1="108.055" x2="12.19" y2="116.434"/>
</g>
<style type="text/css"><![CDATA[
rect,circle,path { vector-effect: non-scaling-stroke; }
]]></style>
</svg>

