<?xml version="1.0" encoding="utf-8"?>
<!-- Generator: Adobe Illustrator 22.1.0, SVG Export Plug-In . SVG Version: 6.00 Build 0)  -->
<svg version="1.1" id="Layer_1" xmlns="http://www.w3.org/2000/svg" xmlns:xlink="http://www.w3.org/1999/xlink" x="0px" y="0px"
	 viewBox="0 0 180 1210.676" style="enable-background:new 0 0 180 1210.676;" xml:space="preserve">
<g>
	<g>
		<rect x="21.117" y="237.849" style="fill:#FFFFFF;stroke:#E0E0E0;" width="29.123" height="22.064"/>
		<rect x="21.117" y="259.913" style="fill:#FFFFFF;stroke:#E0E0E0;" width="29.123" height="22.064"/>
		<rect x="21.117" y="215.785" style="fill:#FFFFFF;stroke:#E0E0E0;" width="29.123" height="22.064"/>
		<rect x="21.117" y="281.977" style="fill:#FFFFFF;stroke:#E0E0E0;" width="29.123" height="22.064"/>
		<rect x="21.117" y="304.041" style="fill:#FFFFFF;stroke:#E0E0E0;" width="29.123" height="22.064"/>
		<rect x="21.117" y="326.105" style="fill:#FFFFFF;stroke:#E0E0E0;" width="29.123" height="22.064"/>
		<rect x="21.117" y="348.169" style="fill:#FFFFFF;stroke:#E0E0E0;" width="29.123" height="22.064"/>
		<rect x="21.117" y="370.232" style="fill:#FFFFFF;stroke:#E0E0E0;" width="29.123" height="22.064"/>
		<rect x="21.117" y="392.296" style="fill:#FFFFFF;stroke:#E0E0E0;" width="29.123" height="22.064"/>
		<rect x="21.117" y="414.36" style="fill:#FFFFFF;stroke:#E0E0E0;" width="29.123" height="22.064"/>
		<rect x="21.117" y="436.424" style="fill:#FFFFFF;stroke:#E0E0E0;" width="29.123" height="22.064"/>
		<rect x="21.117" y="458.488" style="fill:#FFFFFF;stroke:#E0E0E0;" width="29.123" height="22.064"/>
		<rect x="21.117" y="480.552" style="fill:#FFFFFF;stroke:#E0E0E0;" width="29.123" height="22.064"/>
		<rect x="21.117" y="502.616" style="fill:#FFFFFF;stroke:#E0E0E0;" width="29.123" height="22.064"/>
		<rect x="21.117" y="524.68" style="fill:#FFFFFF;stroke:#E0E0E0;" width="29.123" height="22.064"/>
		<rect x="21.117" y="546.744" style="fill:#FFFFFF;stroke:#E0E0E0;" width="29.123" height="22.064"/>
		<rect x="21.117" y="568.808" style="fill:#FFFFFF;stroke:#E0E0E0;" width="29.123" height="22.064"/>
		<rect x="21.117" y="590.872" style="fill:#FFFFFF;stroke:#E0E0E0;" width="29.123" height="22.064"/>
		<rect x="21.117" y="612.936" style="fill:#FFFFFF;stroke:#E0E0E0;" width="29.123" height="22.064"/>
		<rect x="21.117" y="635" style="fill:#FFFFFF;stroke:#E0E0E0;" width="29.123" height="22.064"/>
		<rect x="21.117" y="657.064" style="fill:#FFFFFF;stroke:#E0E0E0;" width="29.123" height="22.064"/>
		<rect x="21.117" y="679.127" style="fill:#FFFFFF;stroke:#E0E0E0;" width="29.123" height="22.064"/>
		<rect x="21.117" y="701.191" style="fill:#FFFFFF;stroke:#E0E0E0;" width="29.123" height="22.064"/>
		<rect x="21.117" y="723.255" style="fill:#FFFFFF;stroke:#E0E0E0;" width="29.123" height="22.064"/>
		<rect x="21.117" y="745.319" style="fill:#FFFFFF;stroke:#E0E0E0;" width="29.123" height="22.064"/>
		<rect x="21.117" y="767.383" style="fill:#FFFFFF;stroke:#E0E0E0;" width="29.123" height="22.064"/>
		<rect x="21.117" y="789.447" style="fill:#FFFFFF;stroke:#E0E0E0;" width="29.123" height="22.064"/>
		<rect x="21.117" y="811.511" style="fill:#FFFFFF;stroke:#E0E0E0;" width="29.123" height="22.064"/>
		<rect x="21.117" y="833.575" style="fill:#FFFFFF;stroke:#E0E0E0;" width="29.123" height="22.064"/>
		<rect x="21.117" y="855.639" style="fill:#FFFFFF;stroke:#E0E0E0;" width="29.123" height="22.064"/>
		<rect x="21.117" y="877.703" style="fill:#FFFFFF;stroke:#E0E0E0;" width="29.123" height="22.064"/>
		<rect x="21.117" y="899.767" style="fill:#FFFFFF;stroke:#E0E0E0;" width="29.123" height="22.064"/>
		<rect x="21.117" y="921.831" style="fill:#FFFFFF;stroke:#E0E0E0;" width="29.123" height="22.064"/>
		<rect x="21.117" y="943.895" style="fill:#FFFFFF;stroke:#E0E0E0;" width="29.123" height="22.064"/>
		<rect x="21.117" y="965.958" style="fill:#FFFFFF;stroke:#E0E0E0;" width="29.123" height="22.064"/>
		<rect x="21.117" y="988.022" style="fill:#FFFFFF;stroke:#E0E0E0;" width="29.123" height="22.064"/>
		<rect x="21.117" y="1010.086" style="fill:#FFFFFF;stroke:#E0E0E0;" width="29.123" height="22.064"/>
		<rect x="21.117" y="1032.15" style="fill:#FFFFFF;stroke:#E0E0E0;" width="29.123" height="22.064"/>
		<rect x="21.117" y="1054.214" style="fill:#FFFFFF;stroke:#E0E0E0;" width="29.123" height="22.064"/>
		<rect x="21.117" y="1076.278" style="fill:#FFFFFF;stroke:#E0E0E0;" width="29.123" height="22.064"/>
		<rect x="21.117" y="1098.342" style="fill:#FFFFFF;stroke:#E0E0E0;" width="29.123" height="22.064"/>
		<rect x="21.117" y="1120.406" style="fill:#FFFFFF;stroke:#E0E0E0;" width="29.123" height="22.064"/>
		<rect x="21.117" y="1142.47" style="fill:#FFFFFF;stroke:#E0E0E0;" width="29.123" height="22.064"/>
		<rect x="21.117" y="1164.539" style="fill:#FFFFFF;stroke:#E0E0E0;" width="29.123" height="22.064"/>
	</g>
	<line style="fill:none;stroke:#C11B17;stroke-width:6;" x1="43.753" y1="251.606" x2="43.753" y2="270.026"/>
	<line style="fill:none;stroke:#C11B17;stroke-width:6;" x1="43.753" y1="273.687" x2="43.753" y2="292.106"/>
	<line style="fill:none;stroke:#C11B17;stroke-width:6;" x1="43.753" y1="494.342" x2="43.753" y2="555.675"/>
	<line style="fill:none;stroke:#7E587E;stroke-width:6;" x1="35.678" y1="546.744" x2="35.678" y2="700.026"/>
	<line style="fill:none;stroke:#024E87;stroke-width:6;" x1="31.117" y1="295.751" x2="31.117" y2="335.052"/>
	<line style="fill:none;stroke:#024E87;stroke-width:6;" x1="31.117" y1="488.826" x2="31.117" y2="336.788"/>
	<line style="fill:none;stroke:#C11B17;stroke-width:6;" x1="43.753" y1="821.624" x2="43.753" y2="557.412"/>
	<line style="fill:none;stroke:#C11B17;stroke-width:6;" x1="43.753" y1="909.879" x2="43.753" y2="847.365"/>
	<line style="fill:none;stroke:#C11B17;stroke-width:6;" x1="43.753" y1="1020.199" x2="43.753" y2="935.621"/>
	<line style="fill:none;stroke:#C11B17;stroke-width:6;" x1="43.753" y1="1079.036" x2="43.753" y2="1023.876"/>
	<line style="fill:none;stroke:#C11B17;stroke-width:6;" x1="43.753" y1="1110.966" x2="43.753" y2="1093.745"/>
	<line style="fill:none;stroke:#7E587E;stroke-width:6;" x1="35.678" y1="821.624" x2="35.678" y2="701.762"/>
	<line style="fill:none;stroke:#C11B17;stroke-width:6;" x1="43.753" y1="1112.703" x2="43.753" y2="1167.292"/>
	<polyline style="fill:none;stroke:#000000;stroke-miterlimit:10;" points="60.975,171.5 54.75,171.5 54.75,257.072 46.936,257.072 
			"/>
	<polyline style="fill:none;stroke:#000000;stroke-miterlimit:10;" points="60.975,294.15 54.75,294.15 54.75,286.198 
		46.936,286.198 	"/>
	<polyline style="fill:none;stroke:#000000;stroke-miterlimit:10;" points="60.975,1165.901 54.75,1165.901 54.75,1149.949 
		46.936,1149.949 	"/>
	<polyline style="fill:none;stroke:#000000;stroke-miterlimit:10;" points="60.975,349.814 48.96,349.814 48.96,319.141 
		22.172,319.141 	"/>
	<polyline style="fill:none;stroke:#000000;stroke-miterlimit:10;" points="60.975,418.665 48.96,418.665 48.96,418.665 
		22.172,418.665 	"/>
	<line style="fill:none;stroke:#000000;stroke-miterlimit:10;" x1="60.975" y1="519" x2="46.936" y2="519"/>
	<line style="fill:none;stroke:#000000;stroke-miterlimit:10;" x1="60.975" y1="601.769" x2="46.936" y2="601.769"/>
	<line style="fill:none;stroke:#000000;stroke-miterlimit:10;" x1="60.975" y1="869.356" x2="46.936" y2="869.356"/>
	<line style="fill:none;stroke:#000000;stroke-miterlimit:10;" x1="60.975" y1="967.639" x2="46.936" y2="967.639"/>
	<line style="fill:none;stroke:#000000;stroke-miterlimit:10;" x1="60.975" y1="1028.563" x2="46.936" y2="1028.563"/>
	<line style="fill:none;stroke:#000000;stroke-miterlimit:10;" x1="60.975" y1="1104.969" x2="46.936" y2="1104.969"/>
	<line style="fill:none;stroke:#000000;stroke-miterlimit:10;" x1="60.975" y1="692.25" x2="34.686" y2="692.25"/>
	<line style="fill:none;stroke:#C11B17;stroke-width:6;" x1="8.007" y1="21.47" x2="8.007" y2="39.89"/>
	<line style="fill:none;stroke:#7E587E;stroke-width:6;" x1="8.007" y1="47.47" x2="8.007" y2="65.89"/>
	<line style="fill:none;stroke:#024E87;stroke-width:6;" x1="8.007" y1="73.47" x2="8.007" y2="91.89"/>
	<g>
		<circle style="fill:#FFFFFF;stroke:#231F20;stroke-miterlimit:10;" cx="8.007" cy="108.404" r="5.772"/>
		<circle style="fill:none;stroke:#231F20;stroke-width:1.5;stroke-miterlimit:10;" cx="8.007" cy="108.404" r="5.772"/>
	</g>
	<line style="fill:none;stroke:#231F20;stroke-width:1.5;stroke-miterlimit:10;" x1="3.811" y1="104.208" x2="12.19" y2="112.587"/>
	<g>
		<g>
			<circle style="fill:#FFFFFF;stroke:#231F20;stroke-miterlimit:10;" cx="43.92" cy="1163.292" r="5.772"/>
			<circle style="fill:none;stroke:#231F20;stroke-width:1.5;stroke-miterlimit:10;" cx="43.92" cy="1163.292" r="5.772"/>
		</g>
		
			<line style="fill:none;stroke:#231F20;stroke-width:1.5;stroke-miterlimit:10;" x1="39.724" y1="1159.102" x2="48.103" y2="1167.481"/>
	</g>
	<g>
		<g>
			<circle style="fill:#FFFFFF;stroke:#231F20;stroke-miterlimit:10;" cx="43.92" cy="1075.092" r="5.772"/>
			<circle style="fill:none;stroke:#231F20;stroke-width:1.5;stroke-miterlimit:10;" cx="43.92" cy="1075.092" r="5.772"/>
		</g>
		
			<line style="fill:none;stroke:#231F20;stroke-width:1.5;stroke-miterlimit:10;" x1="39.724" y1="1070.903" x2="48.103" y2="1079.281"/>
	</g>
	<g>
		<g>
			<circle style="fill:#FFFFFF;stroke:#231F20;stroke-miterlimit:10;" cx="43.92" cy="1016.088" r="5.772"/>
			<circle style="fill:none;stroke:#231F20;stroke-width:1.5;stroke-miterlimit:10;" cx="43.92" cy="1016.088" r="5.772"/>
		</g>
		
			<line style="fill:none;stroke:#231F20;stroke-width:1.5;stroke-miterlimit:10;" x1="39.724" y1="1011.899" x2="48.103" y2="1020.278"/>
	</g>
	<g>
		<g>
			<circle style="fill:#FFFFFF;stroke:#231F20;stroke-miterlimit:10;" cx="43.92" cy="905.988" r="5.772"/>
			<circle style="fill:none;stroke:#231F20;stroke-width:1.5;stroke-miterlimit:10;" cx="43.92" cy="905.988" r="5.772"/>
		</g>
		
			<line style="fill:none;stroke:#231F20;stroke-width:1.5;stroke-miterlimit:10;" x1="39.724" y1="901.799" x2="48.103" y2="910.177"/>
	</g>
	<g>
		<g>
			<circle style="fill:#FFFFFF;stroke:#231F20;stroke-miterlimit:10;" cx="43.92" cy="818.319" r="5.772"/>
		</g>
		
			<line style="fill:none;stroke:#231F20;stroke-width:1.5;stroke-miterlimit:10;" x1="39.724" y1="814.13" x2="48.103" y2="822.508"/>
	</g>
</g>
<style type="text/css"><![CDATA[
rect,circle,path { vector-effect: non-scaling-stroke; }
]]></style>
</svg>

